<svg width="45" height="42" viewBox="0 0 45 42" fill="none" xmlns="http://www.w3.org/2000/svg">
<path d="M18.0807 41.6438C22.234 40.0105 21.324 35.5071 19.224 32.6605C17.1473 29.7438 14.2773 27.7371 11.384 25.8005C9.31959 24.4993 7.47635 22.8766 5.924 20.9938C5.27067 20.2238 3.94067 18.8005 5.294 18.5205C6.67067 18.2405 9.05067 19.5938 10.264 20.1071C12.3873 20.9938 14.4873 22.0205 16.4473 23.2338L18.804 19.2671C15.164 16.8638 10.4973 14.7405 6.15733 14.1105C3.684 13.7371 1.07067 14.2505 0.230665 16.9338C-0.516002 19.2438 0.673998 21.5771 2.02733 23.3971C5.224 27.6671 10.194 29.7205 13.904 33.4071C14.6973 34.1771 15.654 35.0871 16.1207 36.1605C16.6107 37.1871 16.494 37.2571 15.3973 37.2571C12.504 37.2571 8.88733 34.9938 6.53067 33.5005L4.174 37.4671C7.744 39.6605 13.7173 43.0905 18.0807 41.6438ZM43.9573 5.24381C44.4707 4.73048 44.4707 3.89048 43.9573 3.40048L40.924 0.367143C40.6796 0.131605 40.3534 0 40.014 0C39.6746 0 39.3484 0.131605 39.104 0.367143L36.724 2.74714L41.5773 7.60048L43.9573 5.24381ZM20.9973 18.4738V23.3271H25.8507L40.2007 8.97714L35.3473 4.12381L20.9973 18.4738Z" fill="#2091F9"/>
</svg>
