<svg width="49" height="46" viewBox="0 0 49 46" fill="none" xmlns="http://www.w3.org/2000/svg">
<path d="M47.5546 4.14927L44.1488 0.743437C43.2083 -0.247812 41.5562 -0.247812 40.565 0.743437L17.7917 23.5168L24.7812 30.5064L47.5546 7.73302C48.5458 6.74177 48.5458 5.08969 47.5546 4.14927ZM12.7083 27.9647C10.6861 27.9647 8.74661 28.768 7.31664 30.198C5.88668 31.628 5.08333 33.5674 5.08333 35.5897C5.08333 38.9193 2.135 40.673 0 40.673C2.33833 43.7739 6.35417 45.7564 10.1667 45.7564C12.863 45.7564 15.449 44.6852 17.3556 42.7786C19.2622 40.872 20.3333 38.2861 20.3333 35.5897C20.3333 33.5674 19.53 31.628 18.1 30.198C16.6701 28.768 14.7306 27.9647 12.7083 27.9647Z" fill="#2091F9"/>
</svg>
