<svg width="27" height="22" viewBox="0 0 27 22" fill="none" xmlns="http://www.w3.org/2000/svg">
<g clip-path="url(#clip0_67_7936)">
<path d="M25.3125 0.6875H0.9375C0.418945 0.6875 0 1.10645 0 1.625V20.375C0 20.8936 0.418945 21.3125 0.9375 21.3125H25.3125C25.8311 21.3125 26.25 20.8936 26.25 20.375V1.625C26.25 1.10645 25.8311 0.6875 25.3125 0.6875ZM24.1406 3.93359V19.2031H2.10938V3.93359L1.30078 3.30371L2.45215 1.82422L3.70605 2.7998H22.5469L23.8008 1.82422L24.9521 3.30371L24.1406 3.93359ZM22.5469 2.79688L13.125 10.1211L3.70312 2.79688L2.44922 1.82129L1.29785 3.30078L2.10645 3.93066L12.1143 11.7119C12.4021 11.9355 12.7561 12.0569 13.1206 12.0569C13.4851 12.0569 13.8391 11.9355 14.127 11.7119L24.1406 3.93359L24.9492 3.30371L23.7979 1.82422L22.5469 2.79688Z" fill="#2091F9"/>
</g>
<defs>
<clipPath id="clip0_67_7936">
<rect width="27" height="22" fill="white"/>
</clipPath>
</defs>
</svg>
